<?xml version="1.0" standalone="no"?>
<!DOCTYPE svg PUBLIC "-//W3C//DTD SVG 1.1//EN" "http://www.w3.org/Graphics/SVG/1.1/DTD/svg11.dtd" >
<svg xmlns="http://www.w3.org/2000/svg" xmlns:xlink="http://www.w3.org/1999/xlink" version="1.1">
<metadata></metadata>
<defs>
<font id="aero_matics_displayregular" horiz-adv-x="1100" >
<font-face units-per-em="2048" ascent="1638" descent="-410" />
<missing-glyph horiz-adv-x="400" />
<glyph horiz-adv-x="0" />
<glyph horiz-adv-x="682" />
<glyph unicode=" "  horiz-adv-x="400" />
<glyph unicode="&#x09;" horiz-adv-x="400" />
<glyph unicode="&#xa0;" horiz-adv-x="400" />
<glyph unicode="!" horiz-adv-x="400" d="M100 0v200h200v-200h-200zM100 400v1000h200v-1000h-200z" />
<glyph unicode="&#x22;" horiz-adv-x="800" d="M100 1100l100 300h200l-100 -300h-200zM400 1100l100 300h200l-100 -300h-200z" />
<glyph unicode="#" horiz-adv-x="1400" d="M100 350v200h215l90 300h-205v200h265l105 350h200l-105 -350h300l105 350h200l-105 -350h135v-200h-195l-90 -300h185v-200h-245l-105 -350h-200l105 350h-300l-105 -350h-200l105 350h-155zM515 550h300l90 300h-300z" />
<glyph unicode="$" d="M100 0v200h400v400h-50q-350 0 -350 350v100q0 350 350 350h50v200h100v-200h400v-200h-400v-400h50q350 0 350 -350v-100q0 -350 -350 -350h-50v-200h-100v200h-400zM300 950q0 -150 150 -150h50v400h-50q-150 0 -150 -150v-100zM600 200h50q150 0 150 150v100 q0 150 -150 150h-50v-400z" />
<glyph unicode="%" horiz-adv-x="1900" d="M100 950v100q0 350 350 350t350 -350v-100q0 -350 -350 -350t-350 350zM300 950q0 -150 150 -150t150 150v100q0 150 -150 150t-150 -150v-100zM500 0l690 1400h210l-690 -1400h-210zM1100 350v100q0 350 350 350t350 -350v-100q0 -350 -350 -350t-350 350zM1300 350 q0 -150 150 -150t150 150v100q0 150 -150 150t-150 -150v-100z" />
<glyph unicode="&#x26;" d="M100 350v100q0 220 170 250q-170 30 -170 250v100q0 350 350 350h450v-200h-450q-150 0 -150 -150v-100q0 -150 150 -150h250v150h200v-150h100v-200h-100v-600h-450q-350 0 -350 350zM300 350q0 -150 150 -150h250v400h-250q-150 0 -150 -150v-100z" />
<glyph unicode="'" horiz-adv-x="500" d="M100 1100l100 300h200l-100 -300h-200z" />
<glyph unicode="(" horiz-adv-x="700" d="M100 700q0 500 280 900h220q-300 -400 -300 -900t300 -900h-220q-280 400 -280 900z" />
<glyph unicode=")" horiz-adv-x="700" d="M100 -200q300 400 300 900t-300 900h220q280 -400 280 -900t-280 -900h-220z" />
<glyph unicode="*" horiz-adv-x="722" d="M100 1131l12 120l189 -20v179h120v-179l189 20l12 -120l-164 -16l118 -179l-109 -49l-106 165l-106 -165l-109 49l117 179z" />
<glyph unicode="+" horiz-adv-x="1000" d="M100 600v200h300v300h200v-300h300v-200h-300v-300h-200v300h-300z" />
<glyph unicode="," horiz-adv-x="500" d="M100 -100l100 300h200l-100 -300h-200z" />
<glyph unicode="-" horiz-adv-x="800" d="M100 600v200h600v-200h-600z" />
<glyph unicode="." horiz-adv-x="400" d="M100 0v200h200v-200h-200z" />
<glyph unicode="/" horiz-adv-x="820" d="M100 -200l420 1800h200l-420 -1800h-200z" />
<glyph unicode="0" horiz-adv-x="1150" d="M100 350v700q0 350 350 350h250q350 0 350 -350v-700q0 -350 -350 -350h-250q-350 0 -350 350zM300 350q0 -150 150 -150h250q150 0 150 150v440l-550 -390v-50zM300 610l550 390v50q0 150 -150 150h-250q-150 0 -150 -150v-440z" />
<glyph unicode="1" horiz-adv-x="500" d="M100 1200v200h300v-1400h-200v1200h-100z" />
<glyph unicode="2" d="M100 0v450q0 350 350 350h200q150 0 150 150v100q0 150 -150 150h-550v200h550q350 0 350 -350v-100q0 -350 -350 -350h-200q-150 0 -150 -150v-250h700v-200h-900z" />
<glyph unicode="3" horiz-adv-x="1000" d="M100 0v200h450q150 0 150 150v100q0 150 -150 150h-450v200h450q150 0 150 150v100q0 150 -150 150h-450v200h450q350 0 350 -350v-100q0 -220 -170 -250q170 -30 170 -250v-100q0 -350 -350 -350h-450z" />
<glyph unicode="4" d="M100 500v200l290 700h210l-290 -700h490v700h200v-1400h-200v500h-700z" />
<glyph unicode="5" horiz-adv-x="1050" d="M100 0v200h500q150 0 150 150v100q0 150 -150 150h-500v800h850v-200h-650v-400h300q350 0 350 -350v-100q0 -350 -350 -350h-500z" />
<glyph unicode="6" d="M100 350v600q0 450 450 450h350v-200h-350q-250 0 -250 -250v-150h350q350 0 350 -350v-100q0 -350 -350 -350h-190q-360 0 -360 350zM300 350q0 -150 160 -150h190q150 0 150 150v100q0 150 -150 150h-350v-250z" />
<glyph unicode="7" d="M100 1200v200h900v-200l-590 -1200h-210l590 1200h-690z" />
<glyph unicode="8" d="M100 350v100q0 220 170 250q-170 30 -170 250v100q0 350 350 350h200q350 0 350 -350v-100q0 -220 -170 -250q170 -30 170 -250v-100q0 -350 -350 -350h-200q-350 0 -350 350zM300 350q0 -150 150 -150h200q150 0 150 150v100q0 150 -150 150h-200q-150 0 -150 -150v-100 zM300 950q0 -150 150 -150h200q150 0 150 150v100q0 150 -150 150h-200q-150 0 -150 -150v-100z" />
<glyph unicode="9" d="M100 950v100q0 350 350 350h190q360 0 360 -350v-600q0 -450 -450 -450h-350v200h350q250 0 250 250v150h-350q-350 0 -350 350zM300 950q0 -150 150 -150h350v250q0 150 -160 150h-190q-150 0 -150 -150v-100z" />
<glyph unicode=":" horiz-adv-x="400" d="M100 0v200h200v-200h-200zM100 800v200h200v-200h-200z" />
<glyph unicode=";" horiz-adv-x="400" d="M0 -100l100 300h200l-100 -300h-200zM100 800v200h200v-200h-200z" />
<glyph unicode="&#x3c;" horiz-adv-x="900" d="M100 600v200l700 300v-200l-500 -200l500 -200v-200z" />
<glyph unicode="=" horiz-adv-x="800" d="M100 400v200h600v-200h-600zM100 800v200h600v-200h-600z" />
<glyph unicode="&#x3e;" horiz-adv-x="900" d="M100 300v200l500 200l-500 200v200l700 -300v-200z" />
<glyph unicode="?" horiz-adv-x="1000" d="M100 1200v200h450q350 0 350 -350v-100q0 -350 -350 -350h-50v-200h-200v400h250q150 0 150 150v100q0 150 -150 150h-450zM300 0v200h200v-200h-200z" />
<glyph unicode="@" horiz-adv-x="1500" d="M100 500v400q0 500 500 500h300q500 0 500 -500v-300q0 -300 -250 -300q-202 0 -239 115q-61 -115 -211 -115q-300 0 -300 300v200q0 300 300 300q150 0 200 -100v100h200v-500q0 -100 50 -100t50 100v300q0 300 -300 300h-300q-300 0 -300 -300v-400q0 -300 300 -300 h600v-200h-600q-500 0 -500 500zM600 600q0 -100 100 -100q150 0 200 100v200q-50 100 -200 100q-100 0 -100 -100v-200z" />
<glyph unicode="A" d="M0 0l420 1400h260l420 -1400h-200l-93 300h-514l-93 -300h-200zM354 500h392l-196 700z" />
<glyph unicode="B" d="M100 0v1400h550q350 0 350 -350v-100q0 -220 -170 -250q170 -30 170 -250v-100q0 -350 -350 -350h-550zM300 200h350q150 0 150 150v100q0 150 -150 150h-350v-400zM300 800h350q150 0 150 150v100q0 150 -150 150h-350v-400z" />
<glyph unicode="C" horiz-adv-x="1000" d="M100 350v700q0 350 350 350h450v-200h-450q-150 0 -150 -150v-700q0 -150 150 -150h450v-200h-450q-350 0 -350 350z" />
<glyph unicode="D" d="M100 0v1400h550q350 0 350 -350v-700q0 -350 -350 -350h-550zM300 200h350q150 0 150 150v700q0 150 -150 150h-350v-1000z" />
<glyph unicode="E" horiz-adv-x="1000" d="M100 0v1400h800v-200h-600v-400h600v-200h-600v-400h600v-200h-800z" />
<glyph unicode="F" horiz-adv-x="1000" d="M100 0v1400h800v-200h-600v-400h600v-200h-600v-600h-200z" />
<glyph unicode="G" d="M100 350v700q0 350 350 350h550v-200h-550q-150 0 -150 -150v-700q0 -150 150 -150h200q150 0 150 150v250h-300v200h500v-450q0 -350 -350 -350h-200q-350 0 -350 350z" />
<glyph unicode="H" d="M100 0v1400h200v-600h500v600h200v-1400h-200v600h-500v-600h-200z" />
<glyph unicode="I" horiz-adv-x="400" d="M100 0v1400h200v-1400h-200z" />
<glyph unicode="J" horiz-adv-x="700" d="M100 0v200h100q200 0 200 200v1000h200v-1000q0 -400 -400 -400h-100z" />
<glyph unicode="K" horiz-adv-x="1150" d="M100 0v1400h200v-680l550 680h250l-550 -700l550 -700h-250l-550 680v-680h-200z" />
<glyph unicode="L" horiz-adv-x="1000" d="M100 0v1400h200v-1200h600v-200h-800z" />
<glyph unicode="M" horiz-adv-x="1500" d="M100 0v1400h270l380 -1050l380 1050h270v-1400h-200v1050l-370 -1050h-160l-370 1050v-1050h-200z" />
<glyph unicode="N" horiz-adv-x="1200" d="M100 0v1400h200l600 -1000v1000h200v-1400h-200l-600 1000v-1000h-200z" />
<glyph unicode="O" horiz-adv-x="1150" d="M100 350v700q0 350 350 350h250q350 0 350 -350v-700q0 -350 -350 -350h-250q-350 0 -350 350zM300 350q0 -150 150 -150h250q150 0 150 150v700q0 150 -150 150h-250q-150 0 -150 -150v-700z" />
<glyph unicode="P" d="M100 0v1400h550q350 0 350 -350v-100q0 -350 -350 -350h-350v-600h-200zM300 800h350q150 0 150 150v100q0 150 -150 150h-350v-400z" />
<glyph unicode="Q" horiz-adv-x="1150" d="M100 350v700q0 350 350 350h250q350 0 350 -350v-700q0 -290 -230 -350l80 -200h-170l-80 200h-200q-350 0 -350 350zM300 350q0 -150 150 -150h110l-80 200h170l80 -200q120 0 120 150v700q0 150 -150 150h-250q-150 0 -150 -150v-700z" />
<glyph unicode="R" d="M100 0v1400h550q350 0 350 -350v-100q0 -315 -234 -346l234 -604h-200l-232 600h-268v-600h-200zM300 800h350q150 0 150 150v100q0 150 -150 150h-350v-400z" />
<glyph unicode="S" d="M100 0v200h550q150 0 150 150v100q0 150 -150 150h-200q-350 0 -350 350v100q0 350 350 350h550v-200h-550q-150 0 -150 -150v-100q0 -150 150 -150h200q350 0 350 -350v-100q0 -350 -350 -350h-550z" />
<glyph unicode="T" d="M100 1200v200h900v-200h-350v-1200h-200v1200h-350z" />
<glyph unicode="U" horiz-adv-x="1150" d="M100 350v1050h200v-1050q0 -150 150 -150h250q150 0 150 150v1050h200v-1050q0 -350 -350 -350h-250q-350 0 -350 350z" />
<glyph unicode="V" d="M0 1400h200l350 -1200l350 1200h200l-420 -1400h-260z" />
<glyph unicode="W" horiz-adv-x="1500" d="M0 1400h200l200 -1100l250 1100h200l250 -1100l200 1100h200l-270 -1400h-260l-220 1081l-220 -1081h-260z" />
<glyph unicode="X" horiz-adv-x="1200" d="M100 0l335 700l-335 700h230l270 -596l270 596h230l-335 -700l335 -700h-230l-270 595l-270 -595h-230z" />
<glyph unicode="Y" horiz-adv-x="1000" d="M0 1400h220l280 -600l280 600h220l-400 -800v-600h-200v600z" />
<glyph unicode="Z" d="M100 0v200l670 1000h-670v200h900v-200l-670 -1000h670v-200h-900z" />
<glyph unicode="[" horiz-adv-x="600" d="M100 -200v1800h400v-200h-200v-1400h200v-200h-400z" />
<glyph unicode="\" horiz-adv-x="820" d="M100 1600h200l420 -1800h-200z" />
<glyph unicode="]" horiz-adv-x="600" d="M100 0h200v1400h-200v200h400v-1800h-400v200z" />
<glyph unicode="^" horiz-adv-x="1000" d="M100 700l300 700h200l300 -700h-200l-200 500l-200 -500h-200z" />
<glyph unicode="_" horiz-adv-x="800" d="M0 -200h800v-200h-800v200z" />
<glyph unicode="`" horiz-adv-x="500" d="M100 1400h210l90 -300h-160z" />
<glyph unicode="a" horiz-adv-x="880" d="M0 -8l328 1013h224l328 -1013h-192l-70 209h-356l-70 -209h-192zM320 380h240l-120 397z" />
<glyph unicode="b" horiz-adv-x="865" d="M75 -8v1013h433q282 0 282 -263v-70q0 -140 -124 -173q124 -34 124 -174v-70q0 -263 -282 -263h-433zM265 171h243q92 0 92 84v70q0 84 -92 84h-243v-238zM265 588h243q92 0 92 84v70q0 84 -92 84h-243v-238z" />
<glyph unicode="c" horiz-adv-x="790" d="M75 255v487q0 263 283 263h357v-179h-357q-93 0 -93 -84v-487q0 -84 93 -84h357v-179h-357q-283 0 -283 263z" />
<glyph unicode="d" horiz-adv-x="865" d="M75 -8v1013h433q282 0 282 -263v-487q0 -263 -282 -263h-433zM265 171h243q92 0 92 84v487q0 84 -92 84h-243v-655z" />
<glyph unicode="e" horiz-adv-x="790" d="M75 -8v1013h640v-179h-450v-238h450v-179h-450v-238h450v-179h-640z" />
<glyph unicode="f" horiz-adv-x="790" d="M75 -8v1013h640v-179h-450v-238h450v-179h-450v-417h-190z" />
<glyph unicode="g" horiz-adv-x="865" d="M75 255v487q0 263 283 263h432v-179h-432q-93 0 -93 -84v-487q0 -84 93 -84h150q92 0 92 84v154h-225v179h415v-333q0 -263 -282 -263h-150q-283 0 -283 263z" />
<glyph unicode="h" horiz-adv-x="865" d="M75 -8v1013h190v-417h335v417h190v-1013h-190v417h-335v-417h-190z" />
<glyph unicode="i" horiz-adv-x="340" d="M75 -8v1013h190v-1013h-190z" />
<glyph unicode="j" horiz-adv-x="565" d="M75 -8v179h95q130 0 130 119v715h190v-715q0 -298 -320 -298h-95z" />
<glyph unicode="k" horiz-adv-x="926" d="M75 -8v1013h190v-439l383 439h240l-429 -506l429 -507h-240l-383 439v-439h-190z" />
<glyph unicode="l" horiz-adv-x="790" d="M75 -8v1013h190v-834h450v-179h-640z" />
<glyph unicode="m" horiz-adv-x="1165" d="M75 -8v1013h236l272 -695l271 695h236v-1013h-190v641l-244 -641h-147l-244 641v-641h-190z" />
<glyph unicode="n" horiz-adv-x="940" d="M75 -8v1013h181l419 -647v647h190v-1013h-181l-419 647v-647h-190z" />
<glyph unicode="o" horiz-adv-x="903" d="M75 255v487q0 263 283 263h187q283 0 283 -263v-487q0 -263 -283 -263h-187q-283 0 -283 263zM265 255q0 -84 93 -84h187q93 0 93 84v487q0 84 -93 84h-187q-93 0 -93 -84v-487z" />
<glyph unicode="p" horiz-adv-x="865" d="M75 -8v1013h433q282 0 282 -263v-70q0 -263 -282 -263h-243v-417h-190zM265 588h243q92 0 92 84v70q0 84 -92 84h-243v-238z" />
<glyph unicode="q" horiz-adv-x="903" d="M75 255v487q0 263 283 263h187q283 0 283 -263v-487q0 -217 -165 -257l62 -145h-171l-60 139h-136q-283 0 -283 263zM265 255q0 -84 93 -84h52l-60 139h171l60 -139q57 0 57 84v487q0 84 -93 84h-187q-93 0 -93 -84v-487z" />
<glyph unicode="r" horiz-adv-x="875" d="M75 -8v1013h433q282 0 282 -263v-70q0 -236 -167 -257l177 -423h-193l-174 417h-168v-417h-190zM265 588h243q92 0 92 84v70q0 84 -92 84h-243v-238z" />
<glyph unicode="s" horiz-adv-x="865" d="M75 -8v179h433q92 0 92 84v70q0 84 -92 84h-150q-283 0 -283 263v70q0 263 283 263h432v-179h-432q-93 0 -93 -84v-70q0 -84 93 -84h150q282 0 282 -263v-70q0 -263 -282 -263h-433z" />
<glyph unicode="t" horiz-adv-x="865" d="M75 826v179h715v-179h-262v-834h-190v834h-263z" />
<glyph unicode="u" horiz-adv-x="903" d="M75 255v750h190v-750q0 -84 93 -84h187q93 0 93 84v750h190v-750q0 -263 -283 -263h-187q-283 0 -283 263z" />
<glyph unicode="v" horiz-adv-x="880" d="M0 1005h192l248 -787l248 787h192l-328 -1013h-224z" />
<glyph unicode="w" horiz-adv-x="1174" d="M0 1005h191l136 -692l169 692h182l169 -692l136 692h191l-211 -1013h-227l-149 678l-149 -678h-227z" />
<glyph unicode="x" horiz-adv-x="966" d="M75 -8l262 507l-262 506h218l190 -389l190 389h218l-262 -506l262 -507h-218l-190 388l-190 -388h-218z" />
<glyph unicode="y" horiz-adv-x="817" d="M0 1005h211l198 -393l197 393h211l-313 -581v-432h-190v432z" />
<glyph unicode="z" horiz-adv-x="865" d="M75 -8v165l483 669h-483v179h715v-165l-483 -669h483v-179h-715z" />
<glyph unicode="{" horiz-adv-x="800" d="M100 600v200q200 0 200 150v250q0 400 400 400v-200q-200 0 -200 -200v-250q0 -220 -200 -250q200 -30 200 -250v-250q0 -200 200 -200v-200q-400 0 -400 400v250q0 150 -200 150z" />
<glyph unicode="|" horiz-adv-x="400" d="M100 -200v1800h200v-1800h-200z" />
<glyph unicode="}" horiz-adv-x="800" d="M100 0q200 0 200 200v250q0 220 200 250q-200 30 -200 250v250q0 200 -200 200v200q400 0 400 -400v-250q0 -150 200 -150v-200q-200 0 -200 -150v-250q0 -400 -400 -400v200z" />
<glyph unicode="~" d="M100 500q0 300 250 300q130 0 220 -75t190 -75q90 0 90 150h150q0 -300 -250 -300q-130 0 -220 70t-190 70q-90 0 -90 -140h-150z" />
<glyph unicode="&#xa1;" horiz-adv-x="400" d="M100 -300v1000h200v-1000h-200zM100 900v200h200v-200h-200z" />
<glyph unicode="&#xa2;" horiz-adv-x="900" d="M100 550v300q0 350 350 350h50v200h100v-200h250v-200h-250v-600h250v-200h-250v-200h-100v200h-50q-350 0 -350 350zM300 550q0 -150 150 -150h50v600h-50q-150 0 -150 -150v-300z" />
<glyph unicode="&#xa3;" d="M100 0v200h150v400h-150v200h150v150q0 450 450 450h300v-200h-300q-250 0 -250 -250v-150h550v-200h-550v-400h550v-200h-900z" />
<glyph unicode="&#xa5;" horiz-adv-x="1000" d="M0 1400h210l290 -600l290 600h210l-400 -800h300v-150h-300v-150h300v-150h-300v-150h-200v150h-300v150h300v150h-300v150h300z" />
<glyph unicode="&#xa6;" horiz-adv-x="400" d="M100 -200v800h200v-800h-200zM100 800v800h200v-800h-200z" />
<glyph unicode="&#xa8;" horiz-adv-x="800" d="M100 1100v200h200v-200h-200zM500 1100v200h200v-200h-200z" />
<glyph unicode="&#xa9;" horiz-adv-x="1395" d="M100 698q0 247 175 422t423 175q247 0 422 -175t175 -422q0 -248 -175 -423t-422 -175q-248 0 -423 175t-175 423zM241 698q0 -189 134 -323t323 -134t323 134t134 323t-134 323t-323 134t-323 -134t-134 -323zM381 698q0 131 93 223.5t224 92.5t223 -93q68 -67 86 -154 h-147q-12 30 -38 55q-51 52 -124 52t-124.5 -51.5t-51.5 -124.5t51.5 -124.5t124.5 -51.5t124 51q28 28 40 61h146q-18 -91 -87 -160q-92 -93 -223 -93t-224 93t-93 224z" />
<glyph unicode="&#xab;" horiz-adv-x="1048" d="M100 650l280 450h220l-280 -450l280 -450h-220zM450 650l280 450h220l-280 -450l280 -450h-220z" />
<glyph unicode="&#xac;" horiz-adv-x="1000" d="M100 600v200h800v-500h-200v300h-600z" />
<glyph unicode="&#xad;" horiz-adv-x="800" d="M100 600v200h600v-200h-600z" />
<glyph unicode="&#xae;" horiz-adv-x="1395" d="M100 693q0 247 175 422t423 175q247 0 422 -175t175 -422q0 -248 -175 -423t-422 -175q-248 0 -423 175t-175 423zM241 693q0 -189 134 -323t323 -134t323 134t134 323t-134 323t-323 134t-323 -134t-134 -323zM446 376v633h302q211 0 211 -211q0 -136 -96 -185l96 -237 h-152l-82 211h-138v-211h-141zM587 728h161q70 0 70 70q0 71 -70 71h-161v-141z" />
<glyph unicode="&#xb0;" horiz-adv-x="620" d="M100 1200q0 87 61.5 148.5t148.5 61.5t148.5 -61.5t61.5 -148.5t-61.5 -148.5t-148.5 -61.5t-148.5 61.5t-61.5 148.5zM220 1200q0 -37 26.5 -63.5t63.5 -26.5t63.5 26.5t26.5 63.5t-26.5 63.5t-63.5 26.5t-63.5 -26.5t-26.5 -63.5z" />
<glyph unicode="&#xb1;" horiz-adv-x="1000" d="M100 0v200h800v-200h-800zM100 600v200h300v300h200v-300h300v-200h-300v-300h-200v300h-300z" />
<glyph unicode="&#xb4;" horiz-adv-x="500" d="M100 1100l90 300h210l-140 -300h-160z" />
<glyph unicode="&#xb5;" horiz-adv-x="1165" d="M75 -8v1013h236l272 -695l271 695h236v-1013h-190v641l-244 -641h-147l-244 641v-641h-190z" />
<glyph unicode="&#xb6;" horiz-adv-x="1200" d="M100 1000q0 400 400 400h600v-1800h-200v1600h-200v-1600h-200v1000q-400 0 -400 400z" />
<glyph unicode="&#xb7;" horiz-adv-x="400" d="M100 600v200h200v-200h-200z" />
<glyph unicode="&#xb8;" horiz-adv-x="600" d="M100 -270q80 -30 180 -30q90 0 90 70t-170 70v60q17 1 32 1q268 0 268 -131q0 -200 -220 -200q-100 0 -180 30v130z" />
<glyph unicode="&#xbb;" horiz-adv-x="1048" d="M100 200l280 450l-280 450h220l280 -450l-280 -450h-220zM450 200l280 450l-280 450h220l280 -450l-280 -450h-220z" />
<glyph unicode="&#xbf;" horiz-adv-x="1000" d="M100 50v100q0 350 350 350h50v200h200v-400h-250q-150 0 -150 -150v-100q0 -150 150 -150h450v-200h-450q-350 0 -350 350zM500 900v200h200v-200h-200z" />
<glyph unicode="&#xc0;" d="M0 0l420 1400h260l420 -1400h-200l-93 300h-514l-93 -300h-200zM350 1800h210l90 -300h-160zM354 500h392l-196 700z" />
<glyph unicode="&#xc1;" d="M0 0l420 1400h260l420 -1400h-200l-93 300h-514l-93 -300h-200zM354 500h392l-196 700zM450 1500l90 300h210l-140 -300h-160z" />
<glyph unicode="&#xc2;" d="M0 0l420 1400h260l420 -1400h-200l-93 300h-514l-93 -300h-200zM250 1500l180 300h240l180 -300h-170l-130 200l-130 -200h-170zM354 500h392l-196 700z" />
<glyph unicode="&#xc3;" d="M0 0l420 1400h260l420 -1400h-200l-93 300h-514l-93 -300h-200zM180 1500q0 250 190 250q100 0 180 -50t170 -50q70 0 70 100h130q0 -250 -190 -250q-100 0 -180 50t-170 50q-70 0 -70 -100h-130zM354 500h392l-196 700z" />
<glyph unicode="&#xc4;" d="M0 0l420 1400h260l420 -1400h-200l-93 300h-514l-93 -300h-200zM250 1500v200h200v-200h-200zM354 500h392l-196 700zM650 1500v200h200v-200h-200z" />
<glyph unicode="&#xc5;" d="M0 0l420 1400h260l420 -1400h-200l-93 300h-514l-93 -300h-200zM340 1700q0 87 61.5 148.5t148.5 61.5t148.5 -61.5t61.5 -148.5t-61.5 -148.5t-148.5 -61.5t-148.5 61.5t-61.5 148.5zM354 500h392l-196 700zM460 1700q0 -37 26.5 -63.5t63.5 -26.5t63.5 26.5t26.5 63.5 t-26.5 63.5t-63.5 26.5t-63.5 -26.5t-26.5 -63.5z" />
<glyph unicode="&#xc6;" horiz-adv-x="1500" d="M0 0l420 1400h980v-200h-500v-400h500v-200h-500v-400h500v-200h-700v300h-407l-93 -300h-200zM354 500h346v700h-150z" />
<glyph unicode="&#xc7;" horiz-adv-x="1000" d="M100 350v700q0 350 350 350h450v-200h-450q-150 0 -150 -150v-700q0 -150 150 -150h450v-200h-450q-350 0 -350 350zM400 -270q80 -30 180 -30q90 0 90 70t-170 70v60q17 1 32 1q268 0 268 -131q0 -200 -220 -200q-100 0 -180 30v130z" />
<glyph unicode="&#xc8;" horiz-adv-x="1000" d="M100 0v1400h800v-200h-600v-400h600v-200h-600v-400h600v-200h-800zM300 1800h210l90 -300h-160z" />
<glyph unicode="&#xc9;" horiz-adv-x="1000" d="M100 0v1400h800v-200h-600v-400h600v-200h-600v-400h600v-200h-800zM400 1500l90 300h210l-140 -300h-160z" />
<glyph unicode="&#xca;" horiz-adv-x="1000" d="M100 0v1400h800v-200h-600v-400h600v-200h-600v-400h600v-200h-800zM200 1500l180 300h240l180 -300h-170l-130 200l-130 -200h-170z" />
<glyph unicode="&#xcb;" horiz-adv-x="1000" d="M100 0v1400h800v-200h-600v-400h600v-200h-600v-400h600v-200h-800zM200 1500v200h200v-200h-200zM600 1500v200h200v-200h-200z" />
<glyph unicode="&#xcc;" horiz-adv-x="400" d="M1 1800h210l90 -300h-160zM100 0v1400h200v-1400h-200z" />
<glyph unicode="&#xcd;" horiz-adv-x="400" d="M100 0v1400h200v-1400h-200zM100 1500l90 300h210l-140 -300h-160z" />
<glyph unicode="&#xce;" horiz-adv-x="400" d="M-99 1500l180 300h240l180 -300h-170l-130 200l-130 -200h-170zM100 0v1400h200v-1400h-200z" />
<glyph unicode="&#xcf;" horiz-adv-x="400" d="M-99 1500v200h200v-200h-200zM100 0v1400h200v-1400h-200zM301 1500v200h200v-200h-200z" />
<glyph unicode="&#xd0;" d="M-100 630v150h200v620h600q300 0 300 -300v-800q0 -300 -300 -300h-600v630h-200zM300 200h400q100 0 100 100v800q0 100 -100 100h-400v-420h200v-150h-200v-430z" />
<glyph unicode="&#xd1;" horiz-adv-x="1200" d="M100 0v1400h200l600 -1000v1000h200v-1400h-200l-600 1000v-1000h-200zM230 1500q0 250 190 250q100 0 180 -50t170 -50q70 0 70 100h130q0 -250 -190 -250q-100 0 -180 50t-170 50q-70 0 -70 -100h-130z" />
<glyph unicode="&#xd2;" horiz-adv-x="1150" d="M100 350v700q0 350 350 350h250q350 0 350 -350v-700q0 -350 -350 -350h-250q-350 0 -350 350zM300 350q0 -150 150 -150h250q150 0 150 150v700q0 150 -150 150h-250q-150 0 -150 -150v-700zM375 1800h210l90 -300h-160z" />
<glyph unicode="&#xd3;" horiz-adv-x="1150" d="M100 350v700q0 350 350 350h250q350 0 350 -350v-700q0 -350 -350 -350h-250q-350 0 -350 350zM300 350q0 -150 150 -150h250q150 0 150 150v700q0 150 -150 150h-250q-150 0 -150 -150v-700zM475 1500l90 300h210l-140 -300h-160z" />
<glyph unicode="&#xd4;" horiz-adv-x="1150" d="M100 350v700q0 350 350 350h250q350 0 350 -350v-700q0 -350 -350 -350h-250q-350 0 -350 350zM275 1500l180 300h240l180 -300h-170l-130 200l-130 -200h-170zM300 350q0 -150 150 -150h250q150 0 150 150v700q0 150 -150 150h-250q-150 0 -150 -150v-700z" />
<glyph unicode="&#xd5;" horiz-adv-x="1150" d="M100 350v700q0 350 350 350h250q350 0 350 -350v-700q0 -350 -350 -350h-250q-350 0 -350 350zM205 1500q0 250 190 250q100 0 180 -50t170 -50q70 0 70 100h130q0 -250 -190 -250q-100 0 -180 50t-170 50q-70 0 -70 -100h-130zM300 350q0 -150 150 -150h250 q150 0 150 150v700q0 150 -150 150h-250q-150 0 -150 -150v-700z" />
<glyph unicode="&#xd6;" horiz-adv-x="1150" d="M100 350v700q0 350 350 350h250q350 0 350 -350v-700q0 -350 -350 -350h-250q-350 0 -350 350zM275 1500v200h200v-200h-200zM300 350q0 -150 150 -150h250q150 0 150 150v700q0 150 -150 150h-250q-150 0 -150 -150v-700zM675 1500v200h200v-200h-200z" />
<glyph unicode="&#xd7;" horiz-adv-x="1049" d="M100 411l283 283l-283 283l141 141l283 -283l283 283l142 -141l-283 -283l283 -283l-142 -141l-283 283l-283 -283z" />
<glyph unicode="&#xd8;" horiz-adv-x="1150" d="M100 350v700q0 350 350 350h225l50 200h150l-53 -213q228 -55 228 -337v-700q0 -350 -350 -350h-225l-50 -200h-150l53 213q-228 54 -228 337zM300 350q0 -108 78 -138l247 988h-175q-150 0 -150 -150v-700zM525 200h175q150 0 150 150v700q0 108 -78 138z" />
<glyph unicode="&#xd9;" horiz-adv-x="1150" d="M100 350v1050h200v-1050q0 -150 150 -150h250q150 0 150 150v1050h200v-1050q0 -350 -350 -350h-250q-350 0 -350 350zM375 1800h210l90 -300h-160z" />
<glyph unicode="&#xda;" horiz-adv-x="1150" d="M100 350v1050h200v-1050q0 -150 150 -150h250q150 0 150 150v1050h200v-1050q0 -350 -350 -350h-250q-350 0 -350 350zM475 1500l90 300h210l-140 -300h-160z" />
<glyph unicode="&#xdb;" horiz-adv-x="1150" d="M100 350v1050h200v-1050q0 -150 150 -150h250q150 0 150 150v1050h200v-1050q0 -350 -350 -350h-250q-350 0 -350 350zM275 1500l180 300h240l180 -300h-170l-130 200l-130 -200h-170z" />
<glyph unicode="&#xdc;" horiz-adv-x="1150" d="M100 350v1050h200v-1050q0 -150 150 -150h250q150 0 150 150v1050h200v-1050q0 -350 -350 -350h-250q-350 0 -350 350zM275 1500v200h200v-200h-200zM675 1500v200h200v-200h-200z" />
<glyph unicode="&#xdd;" horiz-adv-x="1000" d="M0 1400h220l280 -600l280 600h220l-400 -800v-600h-200v600zM400 1500l90 300h210l-140 -300h-160z" />
<glyph unicode="&#xde;" d="M100 0v1400h200v-330h350q350 0 350 -350v-50q0 -350 -350 -350h-350v-320h-200zM300 520h350q150 0 150 150v50q0 150 -150 150h-350v-350z" />
<glyph unicode="&#xdf;" horiz-adv-x="1690" d="M75 -8v179h433q92 0 92 84v70q0 84 -92 84h-150q-283 0 -283 263v70q0 263 283 263h432v-179h-432q-93 0 -93 -84v-70q0 -84 93 -84h150q282 0 282 -263v-70q0 -263 -282 -263h-433zM900 -8v179h433q92 0 92 84v70q0 84 -92 84h-150q-283 0 -283 263v70q0 263 283 263 h432v-179h-432q-93 0 -93 -84v-70q0 -84 93 -84h150q282 0 282 -263v-70q0 -263 -282 -263h-433z" />
<glyph unicode="&#xe0;" horiz-adv-x="880" d="M0 -8l328 1013h224l328 -1013h-192l-70 209h-356l-70 -209h-192zM240 1400h210l90 -300h-160zM320 380h240l-120 397z" />
<glyph unicode="&#xe1;" horiz-adv-x="880" d="M0 -8l328 1013h224l328 -1013h-192l-70 209h-356l-70 -209h-192zM320 380h240l-120 397zM340 1100l90 300h210l-140 -300h-160z" />
<glyph unicode="&#xe2;" horiz-adv-x="880" d="M0 -8l328 1013h224l328 -1013h-192l-70 209h-356l-70 -209h-192zM140 1100l180 300h240l180 -300h-170l-130 200l-130 -200h-170zM320 380h240l-120 397z" />
<glyph unicode="&#xe3;" horiz-adv-x="880" d="M0 -8l328 1013h224l328 -1013h-192l-70 209h-356l-70 -209h-192zM70 1100q0 250 190 250q100 0 180 -50t170 -50q70 0 70 100h130q0 -250 -190 -250q-100 0 -180 50t-170 50q-70 0 -70 -100h-130zM320 380h240l-120 397z" />
<glyph unicode="&#xe4;" horiz-adv-x="880" d="M0 -8l328 1013h224l328 -1013h-192l-70 209h-356l-70 -209h-192zM140 1100v200h200v-200h-200zM320 380h240l-120 397zM540 1100v200h200v-200h-200z" />
<glyph unicode="&#xe5;" horiz-adv-x="880" d="M0 -8l328 1013h224l328 -1013h-192l-70 209h-356l-70 -209h-192zM230 1300q0 87 61.5 148.5t148.5 61.5t148.5 -61.5t61.5 -148.5t-61.5 -148.5t-148.5 -61.5t-148.5 61.5t-61.5 148.5zM320 380h240l-120 397zM350 1300q0 -37 26.5 -63.5t63.5 -26.5t63.5 26.5t26.5 63.5 t-26.5 63.5t-63.5 26.5t-63.5 -26.5t-26.5 -63.5z" />
<glyph unicode="&#xe6;" horiz-adv-x="1172" d="M0 -8l328 1013h769v-179h-375v-238h375v-179h-375v-238h375v-179h-565v209h-270l-70 -209h-192zM320 380h212v446h-77z" />
<glyph unicode="&#xe7;" horiz-adv-x="790" d="M75 255v487q0 263 283 263h357v-179h-357q-93 0 -93 -84v-487q0 -84 93 -84h357v-179h-357q-283 0 -283 263zM245 -270q80 -30 180 -30q90 0 90 70t-170 70v60q17 1 32 1q268 0 268 -131q0 -200 -220 -200q-100 0 -180 30v130z" />
<glyph unicode="&#xe8;" horiz-adv-x="790" d="M75 -8v1013h640v-179h-450v-238h450v-179h-450v-238h450v-179h-640zM195 1400h210l90 -300h-160z" />
<glyph unicode="&#xe9;" horiz-adv-x="790" d="M75 -8v1013h640v-179h-450v-238h450v-179h-450v-238h450v-179h-640zM295 1100l90 300h210l-140 -300h-160z" />
<glyph unicode="&#xea;" horiz-adv-x="790" d="M75 -8v1013h640v-179h-450v-238h450v-179h-450v-238h450v-179h-640zM95 1100l180 300h240l180 -300h-170l-130 200l-130 -200h-170z" />
<glyph unicode="&#xeb;" horiz-adv-x="790" d="M75 -8v1013h640v-179h-450v-238h450v-179h-450v-238h450v-179h-640zM95 1100v200h200v-200h-200zM495 1100v200h200v-200h-200z" />
<glyph unicode="&#xec;" horiz-adv-x="340" d="M-30 1400h210l90 -300h-160zM75 -8v1013h190v-1013h-190z" />
<glyph unicode="&#xed;" horiz-adv-x="340" d="M70 1100l90 300h210l-140 -300h-160zM75 -8v1013h190v-1013h-190z" />
<glyph unicode="&#xee;" horiz-adv-x="340" d="M-130 1100l180 300h240l180 -300h-170l-130 200l-130 -200h-170zM75 -8v1013h190v-1013h-190z" />
<glyph unicode="&#xef;" horiz-adv-x="340" d="M-130 1100v200h200v-200h-200zM75 -8v1013h190v-1013h-190zM270 1100v200h200v-200h-200z" />
<glyph unicode="&#xf0;" horiz-adv-x="865" d="M-75 430v144h150v431h470q245 0 245 -228v-556q0 -229 -245 -229h-470v438h-150zM265 171h280q55 0 55 50v556q0 49 -55 49h-280v-252h150v-144h-150v-259z" />
<glyph unicode="&#xf1;" horiz-adv-x="940" d="M75 -8v1013h181l419 -647v647h190v-1013h-181l-419 647v-647h-190zM100 1100q0 250 190 250q100 0 180 -50t170 -50q70 0 70 100h130q0 -250 -190 -250q-100 0 -180 50t-170 50q-70 0 -70 -100h-130z" />
<glyph unicode="&#xf2;" horiz-adv-x="903" d="M75 255v487q0 263 283 263h187q283 0 283 -263v-487q0 -263 -283 -263h-187q-283 0 -283 263zM251 1400h210l90 -300h-160zM265 255q0 -84 93 -84h187q93 0 93 84v487q0 84 -93 84h-187q-93 0 -93 -84v-487z" />
<glyph unicode="&#xf3;" horiz-adv-x="903" d="M75 255v487q0 263 283 263h187q283 0 283 -263v-487q0 -263 -283 -263h-187q-283 0 -283 263zM265 255q0 -84 93 -84h187q93 0 93 84v487q0 84 -93 84h-187q-93 0 -93 -84v-487zM351 1100l90 300h210l-140 -300h-160z" />
<glyph unicode="&#xf4;" horiz-adv-x="903" d="M75 255v487q0 263 283 263h187q283 0 283 -263v-487q0 -263 -283 -263h-187q-283 0 -283 263zM151 1100l180 300h240l180 -300h-170l-130 200l-130 -200h-170zM265 255q0 -84 93 -84h187q93 0 93 84v487q0 84 -93 84h-187q-93 0 -93 -84v-487z" />
<glyph unicode="&#xf5;" horiz-adv-x="903" d="M75 255v487q0 263 283 263h187q283 0 283 -263v-487q0 -263 -283 -263h-187q-283 0 -283 263zM81 1100q0 250 190 250q100 0 180 -50t170 -50q70 0 70 100h130q0 -250 -190 -250q-100 0 -180 50t-170 50q-70 0 -70 -100h-130zM265 255q0 -84 93 -84h187q93 0 93 84v487 q0 84 -93 84h-187q-93 0 -93 -84v-487z" />
<glyph unicode="&#xf6;" horiz-adv-x="903" d="M75 255v487q0 263 283 263h187q283 0 283 -263v-487q0 -263 -283 -263h-187q-283 0 -283 263zM151 1100v200h200v-200h-200zM265 255q0 -84 93 -84h187q93 0 93 84v487q0 84 -93 84h-187q-93 0 -93 -84v-487zM551 1100v200h200v-200h-200z" />
<glyph unicode="&#xf7;" horiz-adv-x="1000" d="M100 600v200h800v-200h-800zM400 200v200h200v-200h-200zM400 1000v200h200v-200h-200z" />
<glyph unicode="&#xf8;" horiz-adv-x="903" d="M75 255v487q0 263 283 263h153l37 139h154l-41 -153q167 -37 167 -249v-487q0 -263 -283 -263h-153l-38 -139h-154l41 153q-166 36 -166 249zM265 255q0 -61 25 -70l173 641h-105q-93 0 -93 -84v-487zM440 171h105q93 0 93 84v487q0 61 -25 70z" />
<glyph unicode="&#xf9;" horiz-adv-x="903" d="M75 255v750h190v-750q0 -84 93 -84h187q93 0 93 84v750h190v-750q0 -263 -283 -263h-187q-283 0 -283 263zM251 1400h210l90 -300h-160z" />
<glyph unicode="&#xfa;" horiz-adv-x="903" d="M75 255v750h190v-750q0 -84 93 -84h187q93 0 93 84v750h190v-750q0 -263 -283 -263h-187q-283 0 -283 263zM351 1100l90 300h210l-140 -300h-160z" />
<glyph unicode="&#xfb;" horiz-adv-x="903" d="M75 255v750h190v-750q0 -84 93 -84h187q93 0 93 84v750h190v-750q0 -263 -283 -263h-187q-283 0 -283 263zM151 1100l180 300h240l180 -300h-170l-130 200l-130 -200h-170z" />
<glyph unicode="&#xfc;" horiz-adv-x="903" d="M75 255v750h190v-750q0 -84 93 -84h187q93 0 93 84v750h190v-750q0 -263 -283 -263h-187q-283 0 -283 263zM151 1100v200h200v-200h-200zM551 1100v200h200v-200h-200z" />
<glyph unicode="&#xfd;" horiz-adv-x="817" d="M0 1005h211l198 -393l197 393h211l-313 -581v-432h-190v432zM309 1100l90 300h210l-140 -300h-160z" />
<glyph unicode="&#xfe;" horiz-adv-x="865" d="M75 -8v1013h190v-229h243q282 0 282 -264v-34q0 -264 -282 -264h-243v-222h-190zM265 393h243q92 0 92 85v34q0 85 -92 85h-243v-204z" />
<glyph unicode="&#xff;" horiz-adv-x="817" d="M0 1005h211l198 -393l197 393h211l-313 -581v-432h-190v432zM109 1100v200h200v-200h-200zM509 1100v200h200v-200h-200z" />
<glyph unicode="&#x152;" horiz-adv-x="1700" d="M100 350v700q0 350 350 350h200q138 0 200 -92v92h750v-200h-550v-400h550v-200h-550v-400h550v-200h-750v91q-62 -91 -210 -91h-190q-350 0 -350 350zM300 350q0 -150 150 -150h190q210 0 210 100v800q0 100 -200 100h-200q-150 0 -150 -150v-700z" />
<glyph unicode="&#x153;" horiz-adv-x="1315" d="M75 255v487q0 263 283 263h150q113 0 130 -72v72h602v-179h-412v-238h412v-179h-412v-238h412v-179h-602v72q-17 -72 -138 -72h-142q-283 0 -283 263zM265 255q0 -84 93 -84h142q138 0 138 80v496q0 79 -130 79h-150q-93 0 -93 -84v-487z" />
<glyph unicode="&#x178;" horiz-adv-x="1000" d="M0 1400h220l280 -600l280 600h220l-400 -800v-600h-200v600zM200 1500v200h200v-200h-200zM600 1500v200h200v-200h-200z" />
<glyph unicode="&#x2c6;" horiz-adv-x="800" d="M100 1100l180 300h240l180 -300h-170l-130 200l-130 -200h-170z" />
<glyph unicode="&#x2dc;" horiz-adv-x="940" d="M100 1100q0 250 190 250q100 0 180 -50t170 -50q70 0 70 100h130q0 -250 -190 -250q-100 0 -180 50t-170 50q-70 0 -70 -100h-130z" />
<glyph unicode="&#x2000;" horiz-adv-x="955" />
<glyph unicode="&#x2001;" horiz-adv-x="1910" />
<glyph unicode="&#x2002;" horiz-adv-x="955" />
<glyph unicode="&#x2003;" horiz-adv-x="1910" />
<glyph unicode="&#x2004;" horiz-adv-x="636" />
<glyph unicode="&#x2005;" horiz-adv-x="477" />
<glyph unicode="&#x2006;" horiz-adv-x="318" />
<glyph unicode="&#x2007;" horiz-adv-x="318" />
<glyph unicode="&#x2008;" horiz-adv-x="238" />
<glyph unicode="&#x2009;" horiz-adv-x="382" />
<glyph unicode="&#x200a;" horiz-adv-x="106" />
<glyph unicode="&#x2010;" horiz-adv-x="800" d="M100 600v200h600v-200h-600z" />
<glyph unicode="&#x2011;" horiz-adv-x="800" d="M100 600v200h600v-200h-600z" />
<glyph unicode="&#x2012;" horiz-adv-x="800" d="M100 600v200h600v-200h-600z" />
<glyph unicode="&#x2013;" horiz-adv-x="800" d="M100 600v200h600v-200h-600z" />
<glyph unicode="&#x2014;" horiz-adv-x="1000" d="M100 600v200h800v-200h-800z" />
<glyph unicode="&#x2018;" horiz-adv-x="500" d="M100 1400h200l100 -300h-200z" />
<glyph unicode="&#x2019;" horiz-adv-x="500" d="M100 1100l100 300h200l-100 -300h-200z" />
<glyph unicode="&#x201a;" horiz-adv-x="500" d="M100 -100l100 300h200l-100 -300h-200z" />
<glyph unicode="&#x201c;" horiz-adv-x="800" d="M100 1400h200l100 -300h-200zM400 1400h200l100 -300h-200z" />
<glyph unicode="&#x201d;" horiz-adv-x="800" d="M100 1100l100 300h200l-100 -300h-200zM400 1100l100 300h200l-100 -300h-200z" />
<glyph unicode="&#x201e;" horiz-adv-x="800" d="M100 -100l100 300h200l-100 -300h-200zM400 -100l100 300h200l-100 -300h-200z" />
<glyph unicode="&#x2022;" horiz-adv-x="500" d="M100 600v300h300v-300h-300z" />
<glyph unicode="&#x2026;" horiz-adv-x="1200" d="M100 0v200h200v-200h-200zM500 0v200h200v-200h-200zM900 0v200h200v-200h-200z" />
<glyph unicode="&#x202f;" horiz-adv-x="382" />
<glyph unicode="&#x2039;" horiz-adv-x="700" d="M100 650l280 450h220l-280 -450l280 -450h-220z" />
<glyph unicode="&#x203a;" horiz-adv-x="700" d="M100 200l280 450l-280 450h220l280 -450l-280 -450h-220z" />
<glyph unicode="&#x205f;" horiz-adv-x="477" />
<glyph unicode="&#x20ac;" d="M100 450v170h150v160h-150v170h150v100q0 350 350 350h400v-200h-400q-150 0 -150 -150v-100h475l-55 -170h-420v-160h380l-56 -170h-324v-100q0 -150 150 -150h400v-200h-400q-350 0 -350 350v100h-150z" />
<glyph unicode="&#x2122;" horiz-adv-x="1450" d="M100 1250v150h450v-150h-150v-450h-150v450h-150zM650 800v600h200l150 -350l150 350h200v-600h-150v350l-150 -350h-100l-150 350v-350h-150z" />
<glyph unicode="&#x25fc;" horiz-adv-x="1004" d="M0 0v1005h1005v-1005h-1005z" />
</font>
</defs>
</svg>
